<svg xmlns="http://www.w3.org/2000/svg" viewBox="0 0 179.7 96.69"><defs><style>.cls-1{fill:#fff;}.cls-2{fill:#f5fbff;}.cls-3{fill:#dff2fd;}</style></defs><g id="Layer_2" data-name="Layer 2"><g id="OBJECTS"><path class="cls-1" d="M8.28,35.43a11.82,11.82,0,0,1,11.61,1.46A20.38,20.38,0,0,1,32.38,17a20.38,20.38,0,0,1,22.74,6c3.79-12.85,16.2-23,29.6-23s26.17,11.37,26.67,24.76C115,20,121.94,19.36,128,19.58s12.4,1,17,4.87c6.5,5.52,7.13,15.2,6.77,23.72,7.41-3.46,16.94-3.22,23.05,2.21s6.88,16.45.45,21.5c-5.38,4.24-13.1,3.17-19.75,1.53-5.63,9.41-14.8,16.88-25.47,19.42s-22.7-.23-30.47-8a28.05,28.05,0,0,1-49.16-6.39,20.69,20.69,0,0,1-22.1.53,20.7,20.7,0,0,1-9.36-20,12.47,12.47,0,0,1-15-.76C-3.13,52-.07,39,8.28,35.43Z"/><path class="cls-2" d="M32.38,17A20.38,20.38,0,0,0,19.89,36.89,11.82,11.82,0,0,0,8.28,35.43C-.07,39-3.13,52,3.93,58.22a12.47,12.47,0,0,0,15,.76,20.7,20.7,0,0,0,9.36,20,20.67,20.67,0,0,0,22.1-.53,28.05,28.05,0,0,0,49.16,6.39c7.77,7.73,19.81,10.51,30.47,8s19.84-10,25.47-19.42c6.65,1.64,14.37,2.71,19.75-1.53,6.42-5,5.65-16.07-.45-21.5s-15.64-5.67-23.05-2.21C152,41.26,151.65,33.58,148,28a50.88,50.88,0,0,1-4.25,22.57c-1.41,3.2-3.27,6.38-6.19,8.3a20.17,20.17,0,0,1-8.39,2.62,100.44,100.44,0,0,1-17.33,1c-3.32-.09-7.16-.66-8.83-3.52a30.44,30.44,0,0,0,2.1-30.86C101,38.94,91.23,48,79.68,49.23s-23.91-7.18-25.2-18.72a23.06,23.06,0,0,0,3.78,19.25,28.86,28.86,0,0,1-17.33-1.18c-5.09-2-9.81-5.82-11.34-11.08C28,32.06,30.2,26,34.05,21.9A28.85,28.85,0,0,1,42.73,16,19.53,19.53,0,0,0,32.38,17Z"/><path class="cls-3" d="M174.77,50.38c6.1,5.43,6.87,16.45.45,21.5-5.38,4.24-13.1,3.17-19.75,1.53-5.63,9.41-14.8,16.88-25.47,19.42s-22.7-.23-30.47-8a28.05,28.05,0,0,1-49.16-6.39,20.67,20.67,0,0,1-22.1.53,20.7,20.7,0,0,1-9.36-20,12.47,12.47,0,0,1-15-.76c5.63.17,11.86-1.76,16.83-4.38a12.34,12.34,0,0,1,2.06-8.57c-.88,8.28,1.66,17,7.5,23s15,8.62,22.93,6a32,32,0,0,1-.11-11.58C56.51,74.45,66.31,84.49,78.32,87S103.94,83.87,109.6,73a22.6,22.6,0,0,1-3.27,12.15c6.35,3.2,14.07,3.17,20.74.7A38.8,38.8,0,0,0,143.79,73c3.88-5,6.88-11,6.74-17.32a15.19,15.19,0,0,1,5.58,10.87,4.22,4.22,0,0,0,.62,2.56,3.11,3.11,0,0,0,1.37.83c4.91,1.75,10.66-.75,13.69-5S175.55,55.53,174.77,50.38Z"/></g></g></svg>