<svg xmlns="http://www.w3.org/2000/svg" viewBox="0 0 334.93 161.62"><defs><style>.cls-1{fill:#fff;}.cls-2{fill:#f5fbff;}.cls-3{fill:#dff2fd;}</style></defs><g id="Layer_2" data-name="Layer 2"><g id="OBJECTS"><path class="cls-1" d="M34.24,91a20.56,20.56,0,0,1,11.19.34C42.54,69.15,64,45.8,86.27,58.91c1.55-10,6.46-19.75,14.83-25.37s20.4-6.18,28.24.16c.25-10.94,7.19-21.07,16.51-26.82S166.52-.61,177.44.18A55.28,55.28,0,0,1,210.38,13.8C221,23.35,222.79,36,222,49.87c5.7-1.12,11.7-1.5,17.25.22,15.8,4.9,18.63,26.54,14.66,40.27,10-2,20.56-3.73,30.14-.28s17.42,13.84,14.47,23.58c5.64-2.31,11.43-4.63,17.52-4.93s12.65,1.76,16.2,6.71c4.79,6.69,2.62,16.32-2.15,23-6.39,9-16.72,14.59-27.47,17a61,61,0,0,1-53.06-14c2.64,2.38-19.64,15-21.76,15.73-9,3-18,6-27.51,3.71-10.2-2.5-19-9.32-25.2-17.82-21.47,17.22-55.31,16.46-76-1.71-20,16.49-52.34,15.3-71.09-2.6-7.79,3.07-17.58,4.43-23.78-1.2a13.83,13.83,0,0,1-2-17.52,13.83,13.83,0,0,1,17.11-4.22,20.82,20.82,0,0,1,5.81-19.91A20.45,20.45,0,0,1,34.24,91Z"/><path class="cls-2" d="M222,49.87C222.79,36,221,23.35,210.38,13.8A55.28,55.28,0,0,0,177.44.18c-10.92-.79-22.28,1-31.59,6.7,18.46-2.66,38.84-1.78,53.58,9.65a34.14,34.14,0,0,1,9.31,10.67,31.65,31.65,0,0,1,3.48,15.48c-.25,12.42-6.93,24.28-16.68,32s-22.28,11.45-34.7,11.73a52.21,52.21,0,0,0,37.69-5.67C209.77,74.19,221.26,62.86,222,49.87Z"/><path class="cls-2" d="M129.34,33.7c-7.84-6.34-19.87-5.79-28.24-.16S87.82,48.94,86.27,58.91c-1,6.68,5.45,12.41,11.41,15.59s13,3.87,19.73,2.92c-6.59-.67-11.93-6-14.5-12.16C99.63,57.46,100.24,48,105.1,41S121.13,31.67,129.34,33.7Z"/><path class="cls-2" d="M45.43,91.32a20.81,20.81,0,0,0-20.25,4.51,20.82,20.82,0,0,0-5.81,19.91A13.83,13.83,0,0,0,2.26,120a13.83,13.83,0,0,0,2,17.52c6.2,5.63,16,4.27,23.78,1.2,18.75,17.9,51.08,19.09,71.09,2.6,20.68,18.17,54.52,18.93,76,1.71,6.17,8.5,15,15.32,25.2,17.82,9.47,2.31,18.56-.76,27.51-3.71,2.12-.7,24.4-13.35,21.76-15.73a61,61,0,0,0,53.06,14c10.75-2.37,21.08-8,27.47-17,4.77-6.7,6.94-16.33,2.15-23-3.55-5-10.11-7-16.2-6.71s-11.88,2.62-17.52,4.93c3-9.74-4.89-20.14-14.47-23.58s-20.17-1.75-30.14.28c4-13.73,1.14-35.37-14.66-40.27A29.27,29.27,0,0,0,229.08,49c2.31,11.66,1.17,24.34-5.44,34.16-7,10.38-20.9,16.46-32.63,12.1A54.85,54.85,0,0,1,107.89,84C99,90,85.68,89.36,78.5,81.38c-7.42-8.24-3.74-16.58.35-24.85.1-.21.18-.41.26-.62C59.63,50.84,42.85,71.54,45.43,91.32Z"/><path class="cls-3" d="M34.24,91a20.56,20.56,0,0,1,11.19.34c-2.58-19.78,14.2-40.48,33.68-35.41A27.43,27.43,0,0,0,60,65.71a33.2,33.2,0,0,0-7.23,20.47A21.57,21.57,0,0,0,54,94.62c2.84,7,10.33,10.85,17.39,13.6-6.69,1.52-13.46-2-19-6.13S40.85,92.8,34.24,91Z"/><path class="cls-3" d="M249.56,141.37a61,61,0,0,0,53.06,14c10.75-2.37,21.08-8,27.47-17,4.77-6.7,6.94-16.33,2.15-23,.06,13.05-12.65,24-25.21,27.55s-26.18.5-37.95-5.13c-5.65-2.69-11.13-6.07-15.06-11s-6.1-11.47-4.54-17.53C244.81,118.87,246.53,131.23,249.56,141.37Z"/><path class="cls-3" d="M175.09,143c-21.47,17.22-55.31,16.46-76-1.71-20,16.49-52.34,15.3-71.09-2.6-7.79,3.07-17.58,4.43-23.78-1.2a13.83,13.83,0,0,1-2-17.52c3.25,10.79,18.77,15.26,27.91,8.68a23.49,23.49,0,0,1-4.06-14,47,47,0,0,0,40.82,15.24,47,47,0,0,0,35.32-25.51,73.13,73.13,0,0,1-3.68,26.26C118.25,150.43,150.22,155.66,175.09,143Z"/></g></g></svg>