<svg xmlns="http://www.w3.org/2000/svg" viewBox="0 0 297.6 87.19"><defs><style>.cls-1{fill:#fff;}.cls-2{fill:#f5fbff;}.cls-3{fill:#dff2fd;}</style></defs><g id="Layer_2" data-name="Layer 2"><g id="OBJECTS"><path class="cls-1" d="M152.58,2c-14.37,4.3-27.4,15-31.07,28.6-8.2-3.24-17.39-5.05-25.84-2.52S79.94,38.49,80.31,47.3c-7.53-1.61-15.2-3.22-22.86-2.48-7.35.71-15.37,4.11-19.74,10.33A9,9,0,0,0,36,61.86c-5.89-4-13.74-4.93-20.68-4.13-4,.46-8,1.63-11.12,4.25S-.77,68.87.31,72.75c1.9,6.78,10.55,8.49,17.57,9l39,2.58c36,2.39,72.29,4.77,108.18.75,2.94-.32,6.36-1,7.57-3.74,1.13-2.49-.42-5.54-2.73-7s-5.14-1.78-7.87-2l49.34.07c13.16,0,26.32,0,39.48-.12,13.83-.15,27.95-.55,40.92-5.35,2.52-.93,5.31-2.42,5.79-5.06s-1.62-5-4.06-5.87-5.11-.56-7.68-.24c6.55-.31,8.85-10.22,4.46-15.09s-12-5.23-18.35-3.65-12.32,4.71-18.8,5.66c-4.75-9-14.38-15.67-24.61-16.21-6.1-.32-27.61,3.5-29.41,11.19C202.53,22.89,192.32,7,178.13,2,170.28-.8,161.19-.53,152.58,2Z"/><path class="cls-2" d="M37.71,55.15A9,9,0,0,0,36,61.86c-5.89-4-13.74-4.93-20.68-4.13-4,.46-8,1.63-11.12,4.25S-.77,68.87.31,72.75c1.9,6.78,10.55,8.49,17.57,9l39,2.58c36,2.39,72.29,4.77,108.18.75,2.94-.32,6.36-1,7.57-3.74,1.13-2.49-.42-5.54-2.73-7s-5.14-1.78-7.87-2l49.34.07c13.16,0,26.32,0,39.48-.12,13.83-.15,27.95-.55,40.92-5.35,2.52-.93,5.31-2.42,5.79-5.06s-1.62-5-4.06-5.87-5.11-.56-7.68-.24c6.55-.31,8.85-10.22,4.46-15.09s-12-5.23-18.35-3.65-12.32,4.71-18.8,5.66a31,31,0,0,0-8.2-9.78A45.26,45.26,0,0,1,226.4,52.05c-11,6-26.09,6.61-37.89,2.38a43.73,43.73,0,0,0,10.92-17.82,4.82,4.82,0,0,0-.34.94,27.46,27.46,0,0,0-1.31-16.18c-2,7.25-4.83,14.28-9.54,20.08-6.18,7.62-16.35,12.72-25.87,10.37A26.94,26.94,0,0,1,151,45.33c-10.23-9.3-14.6-24.8-10.7-37.79-9,5.48-16.18,13.58-18.75,23.1h0a34.14,34.14,0,0,0,10.66,24.72,75.46,75.46,0,0,1-45.61-.63,33.52,33.52,0,0,0,17.19,11.92,64.4,64.4,0,0,1-44.81-.87c-3.95-1.57-8.08-3.91-9.48-7.92s.52-8.7,3.65-11.66c.33-.31.67-.6,1-.88C47.79,46.61,41.43,49.86,37.71,55.15Z"/><path class="cls-3" d="M285.8,55.65c6.55-.31,8.85-10.22,4.46-15.09s-12-5.23-18.35-3.65a14.89,14.89,0,0,1,6.59,1.27,6.89,6.89,0,0,1,3.66,4.89,7.56,7.56,0,0,1-.4,3.33c-1.57,4.79-6.05,8.11-10.77,9.85-7.08,2.62-14.86,2.36-22.4,2.07C261.07,60,273.23,56.24,285.8,55.65Z"/><path class="cls-3" d="M169.88,74.27c2.31,1.48,3.86,4.53,2.73,7C171.4,84,168,84.71,165,85c-35.89,4-72.15,1.64-108.18-.75l-39-2.58c-7-.46-15.67-2.17-17.57-9C-.77,68.87,1.09,64.59,4.15,62,2.73,64.77,4,68.21,6.1,70.5S11.27,74,14.26,75c13.64,4.33,28.28,3.77,42.57,3.18a14.81,14.81,0,0,1-10.89-7.62c18.12,8.07,38.55,8.74,58.38,9.28,12.05.33,24.26.65,36-2.08a27,27,0,0,1-15.89-4.85C139.74,76,154.79,78.28,169.88,74.27Z"/><path class="cls-3" d="M162,72.22l49.34.07c13.16,0,26.32,0,39.48-.12,13.83-.15,27.95-.55,40.92-5.35,2.52-.93,5.31-2.42,5.79-5.06s-1.62-5-4.06-5.87c.06,2-1.69,3.69-3.39,4.76a16.35,16.35,0,0,1-5.7,1.91c-22.28,4.4-45.17,4.31-67.87,4.21-8.86,0-18.3-.25-25.63-5.22C182.36,67.76,172.57,72,162,72.22Z"/></g></g></svg>