<svg xmlns="http://www.w3.org/2000/svg" viewBox="0 0 231.55 97.97"><defs><style>.cls-1{fill:#fff;}.cls-2{fill:#f5fbff;}.cls-3{fill:#dff2fd;}</style></defs><g id="Layer_2" data-name="Layer 2"><g id="OBJECTS"><path class="cls-1" d="M179.72,3.39c-14-4.64-30.34,1.14-39.69,12.55A39.42,39.42,0,0,0,99.75,1a39.42,39.42,0,0,0-29,31.69C63,30.44,54.58,29.7,47,32.37S32.85,41.62,31.82,49.61c-5.65-1.17-11.44-2.34-17.16-1.54S3.22,52.05,1,57.36C-2.4,65.24,3.52,74.77,11.56,77.7s17.1.73,24.79-3a42.85,42.85,0,0,0,60.94,6.51A48.76,48.76,0,0,0,171.21,80c9.51,7.42,31.36,16.25,41.57,5.66a16,16,0,0,0,3-17.28,15.72,15.72,0,0,0,11-27.13c-9.2-8.71-19-2.7-25.75,5.11C201.07,29,199.46,9.56,179.72,3.39Z"/><path class="cls-2" d="M70.75,32.7C63,30.44,54.58,29.7,47,32.37S32.85,41.62,31.82,49.61c-5.65-1.17-11.44-2.34-17.16-1.54S3.22,52.05,1,57.36C-2.4,65.24,3.52,74.77,11.56,77.7s17.1.73,24.79-3a42.85,42.85,0,0,0,60.94,6.51A48.76,48.76,0,0,0,171.21,80c9.51,7.42,31.36,16.25,41.57,5.66a16,16,0,0,0,3-17.28,15.72,15.72,0,0,0,11-27.13c-9.2-8.71-19-2.7-25.75,5.11.08-13.41-.87-28.11-10.49-36.92.86,9.71-.86,19.73-6.15,27.85-6.14,9.44-17.53,15.76-28.67,14.14-4.41-.63-8.78-2.57-11.56-6.05-3.64-4.56-3.47-11.21-7.08-15.64-2.91-3.55-7.88-5.15-11.75-7.25,4.39,2.38,6.31,8.11,5.13,13s-4.94,8.8-9.31,11.22a24.69,24.69,0,0,1-21.45,1.15A22.48,22.48,0,0,1,86.54,31c-1.19-8,2.4-16.16,7.9-22.09A49.69,49.69,0,0,1,105.65.1a35.65,35.65,0,0,0-5.9.91A39.42,39.42,0,0,0,70.75,32.7Z"/><path class="cls-3" d="M171.21,80c9.51,7.42,31.36,16.25,41.57,5.66a16,16,0,0,0,3-17.28,15.72,15.72,0,0,0,11-27.13,19,19,0,0,1-2.41,11.87c-2,3.8-5.85,6.78-10.15,7.07s-8.79-2.57-9.74-6.77c-1.3,2.47,0,5.52,1.62,7.76s3.8,4.27,4.56,7c1.13,4.06-1.43,8.46-5,10.68s-8,2.7-12.19,2.87C185.48,82,178.67,82.6,171.21,80Z"/><path class="cls-3" d="M134.53,97.53A49.41,49.41,0,0,1,97.29,81.19a42.85,42.85,0,0,1-60.94-6.51c-7.69,3.75-16.75,5.95-24.79,3S-2.4,65.24,1,57.36c.29,6.84,7.37,12.34,14,14.18s13.62.7,20.28-.87A24.38,24.38,0,0,1,34.27,58C39.4,65.12,45.54,72.11,53.84,75,58.73,76.78,64,77,69.21,77c6.36.07,12.82,0,18.89-1.89s11.79-5.76,14.5-11.5c-4,8.6,8.39,19.91,14.25,24.1S129.55,95,136.28,98"/></g></g></svg>