<svg xmlns="http://www.w3.org/2000/svg" viewBox="0 0 175.69 75.19"><defs><style>.cls-1{fill:#fff;}.cls-2{fill:#f5fbff;}.cls-3{fill:#dff2fd;}</style></defs><g id="Layer_2" data-name="Layer 2"><g id="OBJECTS"><path class="cls-1" d="M55.51,1.15a29.08,29.08,0,0,1,30.39,9.1,34.58,34.58,0,0,1,49.45,25.46c5.63-.75,11.44-1.49,16.93,0S163,41.35,163.72,47c6.83.22,14,6.85,11.45,13.19-1.44,3.59-5.41,5.57-9.24,6.11s-7.73,0-11.6.11c-8.3.3-16.09,3.86-24,6.4-6.56,2.11-13.77,3.08-20.61,1.84-5.29-1-10.48-3.71-13.21-8.34C89.06,72.67,78.75,74.43,69,74.88c-7.29.34-14.78.07-21.58-2.58s-12.86-8-14.75-15.08C23,60.61,11.8,58.9,4.19,52-1.47,46.84-1.25,37.33,4,31.88c4.12-4.3,10.78-4.64,16.73-4.5,4.14.09,8.54.36,11.93,2.74C31.72,24,34.19,17.67,38.07,12.8A34.07,34.07,0,0,1,55.51,1.15Z"/><path class="cls-2" d="M55.51,1.15A34.07,34.07,0,0,0,38.07,12.8C34.19,17.67,31.72,24,32.64,30.12c.71,4.7,2.37,8.84,6,11.89s8.17,4.86,12.7,6.33C44.76,33.11,46,14.72,55.51,1.15Z"/><path class="cls-2" d="M4.19,52C11.8,58.9,23,60.61,32.62,57.22c1.89,7,8,12.43,14.75,15.08S61.66,75.22,69,74.88c9.8-.45,20.11-2.21,27.56-8.58,2.73,4.63,7.92,7.39,13.21,8.34,6.84,1.24,14,.27,20.61-1.84,7.91-2.54,15.7-6.1,24-6.4,3.87-.14,7.77.43,11.6-.11s7.8-2.52,9.24-6.11c2.54-6.34-4.62-13-11.45-13.19a10.21,10.21,0,0,0-.45-1.91,33.76,33.76,0,0,0-8.1.18c-13.76,1.94-26,10.37-39.78,12.09a24.81,24.81,0,0,1-11.11-.82,24.26,24.26,0,0,1-8.23-5.22A38.71,38.71,0,0,1,85.88,35.89c2.12,8.35-4.48,17-12.6,19.88s-17.11,1.32-25.38-1.1c-5.21-1.52-11-4-12.55-9.24-6.08,5.07-15.89,5.78-21.76.48-6.68-6-3.31-11.93-.8-18.15A15,15,0,0,0,4,31.88C-1.25,37.33-1.47,46.84,4.19,52Z"/><path class="cls-3" d="M96.51,66.3C89.06,72.67,78.75,74.43,69,74.88c-7.29.34-14.78.07-21.58-2.58s-12.86-8-14.75-15.08C23,60.61,11.8,58.9,4.19,52a50.75,50.75,0,0,0,31.1,2.12c3.94,7.78,12.38,12.71,21.05,13.74s17.48-1.45,25.18-5.58a10.66,10.66,0,0,1-5.63,8.91A41.48,41.48,0,0,0,96.51,66.3Z"/><path class="cls-3" d="M175.17,60.18c-1.44,3.59-5.41,5.57-9.24,6.11s-7.73,0-11.6.11c-8.3.3-16.09,3.86-24,6.4-6.56,2.11-13.77,3.08-20.61,1.84-5.29-1-10.48-3.71-13.21-8.34,8.31,3.19,18.37,3.08,26.9.53,4.84-1.45,9.37-3.79,14.12-5.52A61.74,61.74,0,0,1,175.17,60.18Z"/></g></g></svg>