<svg xmlns="http://www.w3.org/2000/svg" viewBox="0 0 145.07 59.64"><defs><style>.cls-1{fill:#fff;}.cls-2{fill:#f5fbff;}.cls-3{fill:#dff2fd;}</style></defs><g id="Layer_2" data-name="Layer 2"><g id="OBJECTS"><path class="cls-1" d="M26,25C32.84,10.56,53.4,4.82,66.71,13.64a34.79,34.79,0,0,1,60.83,10.65c6.73-1.12,14.41,2.16,16.88,8.52s-2.31,14.85-9.13,14.78c-2.24,0-4.51-.85-6.67-.28-1.74.47-3.1,1.77-4.46,2.93C107.05,64.9,77.89,62,64,44.31c-9.83,8.57-26.14,8.35-35.74-.48,1.29,1.19-13.42,4.25-15.09,4C7.77,47,1,43.73.13,37.75-1.75,25.23,17.3,19,26,25Z"/><path class="cls-2" d="M.13,37.75c.9,6,7.64,9.23,13,10.07,1.67.26,16.38-2.8,15.09-4,9.6,8.83,25.91,9.05,35.74.48C77.89,62,107.05,64.9,124.16,50.24c1.36-1.16,2.72-2.46,4.46-2.93,2.16-.57,4.43.26,6.67.28,6.82.07,11.59-8.42,9.13-14.78s-10.15-9.64-16.88-8.52A33.79,33.79,0,0,0,122,13.84a26.9,26.9,0,0,1-6.34,19.93,23,23,0,0,1-9.26,6.5c-5.17,1.88-10.86,1.57-16.32.89-3.66-.45-7.38-1.07-10.64-2.8s-6-4.75-6.58-8.39c-.47-3.1.69-6.22,2.19-9a35.47,35.47,0,0,1,9.22-10.91A29.54,29.54,0,0,0,61.9,28.77a9.4,9.4,0,0,1-2,3.79,7.64,7.64,0,0,1-3.18,1.52,55.25,55.25,0,0,1-17.3,2c-4.9-.2-10.36-1.44-13-5.59-1.73,2.53-4.24,4.72-7.27,5.18s-6.49-1.31-7.13-4.3c-.51-2.36.81-4.82,2.68-6.34.67-.55,3.09-1.41,4.46-2.28C10,22-1.34,27.94.13,37.75Z"/><path class="cls-3" d="M64,44.31C77.89,62,107.05,64.9,124.16,50.24c1.36-1.16,2.72-2.46,4.46-2.93,2.16-.57,4.43.26,6.67.28,6.82.07,11.59-8.42,9.13-14.78-1,4.4-5,8.2-9.19,10a14.79,14.79,0,0,1-13.06-.8c-1.38,4.6-5.31,8.11-9.73,10s-9.32,2.29-14.11,2.36a43.45,43.45,0,0,1-9.93-.8C82.83,52.3,77.79,49.36,73,46.32,69,43.84,64.81,40.78,64,36.2,63.81,38.61,64.12,41.9,64,44.31Z"/><path class="cls-3" d="M64,44.31c-9.83,8.57-26.14,8.35-35.74-.48,1.29,1.19-13.42,4.25-15.09,4C7.77,47,1,43.73.13,37.75-1.34,27.94,10,22,19.23,22.78,14.7,23.91,10,25.64,7.65,29.65S5.72,39.57,9.56,42.24c2.52,1.76,5.85,1.82,8.89,1.36,3.66-.55,7.57-2,9.26-5.33C32.08,43,38.47,45.4,44.84,46.06S57.7,45.56,64,44.31Z"/></g></g></svg>