<svg xmlns="http://www.w3.org/2000/svg" viewBox="0 0 890.87 352.46"><defs><style>.cls-1{fill:#2a935e;}.cls-2{fill:#3da573;}.cls-3{fill:#298253;}.cls-4{fill:#197241;}.cls-5{fill:#2e895b;}.cls-6{fill:#5aba93;}.cls-7{fill:#6bd1a6;}</style></defs><g id="Layer_2" data-name="Layer 2"><g id="Слой_6" data-name="Слой 6"><polygon class="cls-1" points="890.87 352.42 599.42 77.51 427.86 257.34 750.31 352.42 890.87 352.42"/><path class="cls-2" d="M599.62,77.83l34.89,57.46s0,.09,0,.08l-28.67-4.09a0,0,0,0,0,0,.08l70.06,63.89s0,.08,0,.09l-30.69,2a.05.05,0,0,0,0,.1l68,33h0l22.68,14.43s0,.06,0,.08l-12.32,14.38a.05.05,0,0,0,0,.08l33,20.63h0l134,72.17a.06.06,0,0,0,.06-.09L599.7,77.77C599.65,77.73,599.59,77.78,599.62,77.83Z"/><polygon class="cls-3" points="599.42 77.51 634.56 135.38 605.62 131.25 675.9 195.33 644.9 197.4 622.16 234.6 537.41 139.52 599.42 77.51"/><polygon class="cls-1" points="397.89 0 615.96 218.07 698.64 263.54 750.31 352.42 328.65 352.42 286.71 229.45 252.17 180.86 397.89 0"/><polygon class="cls-4" points="397.89 0 384.46 48.57 394.79 91.98 372.06 125.05 415.46 182.93 386.52 211.86 365.86 290.41 297.64 280.07 252.17 180.86 397.89 0"/><path class="cls-3" d="M279,213.93l41.34-64.08L308,226.33l22.74-16.53-2.07,35.14,26.67-45.13a.1.1,0,0,1,.18.06l-4.11,88.47-39.28,12.41L258.37,265.6Z"/><path class="cls-2" d="M384.72,352.46l-13.49-44.74a56,56,0,0,0-19.88-28.19L299.71,240.8h0L219.1,135.38,117.16,270.3l-7,1.55L64.45,286.58,1.31,352.46Z"/><polygon class="cls-2" points="659.37 282.14 615.96 218.07 543.62 156.06 510.54 228.4 593.22 278.01 618.03 352.42 704.7 350.91 659.37 282.14"/><path class="cls-5" d="M115.75,267.67,186,178.79s-31,76.48-20.67,86.81,55.81,8.27,72.34,20.68-2.06,66.14-2.06,66.14H0l64.08-68.21Z"/><path class="cls-6" d="M219.1,135.38,202,158.26a5.19,5.19,0,0,0-.91,4.28l5.12,22.2a5.22,5.22,0,0,0,2.65,3.44c26.15,13.69,51.74,20.09,55.76,40.22L267,240.67a2.11,2.11,0,0,0,4.09.18l7.18-24.39a5.17,5.17,0,0,0-.86-4.62Z"/><path class="cls-2" d="M400.43,2.54l135.9,135.89a2.11,2.11,0,0,1,.37,2.45l-21.86,41.74a2.46,2.46,0,0,1-.41.55L474.61,221a2.1,2.1,0,0,0-.3,2.67l5.33,8a2.1,2.1,0,0,1-1.57,3.25l-17.74,1.47a2.09,2.09,0,0,0-1.56,3.25h0a2.09,2.09,0,0,1-1.74,3.25H432.44a2.09,2.09,0,0,0-.85.18l-28.7,12.76a2.09,2.09,0,0,1-2.47-3.24L423.1,225a2.1,2.1,0,0,0,.44-1.74L416,185.43a2.09,2.09,0,0,1,2.05-2.5h27a2.09,2.09,0,0,0,1.84-3.09l-21.63-40.18a2.09,2.09,0,0,1,3.23-2.55l39.42,35.2a2.09,2.09,0,0,0,3.21-2.6l-34.61-60.56a2.12,2.12,0,0,0-1-.91L403.93,95.63a2.09,2.09,0,0,1,.69-4L447.38,90a2.09,2.09,0,0,1,1.81.9L467,116.8a2.09,2.09,0,0,0,3.81-1.31l-1.55-26.41a2.11,2.11,0,0,0-1.19-1.77l-46.43-22.2L386.11,49.3a2.08,2.08,0,0,1-1.17-2.46l12-43.38A2.09,2.09,0,0,1,400.43,2.54Z"/><polygon class="cls-6" points="537.41 139.52 473.34 222.2 432 242.87 417.53 271.81 450.6 244.94 460.94 275.94 467.14 240.8 483.67 259.4 485.74 234.6 500.21 238.74 508.48 280.07 522.94 230.47 593.22 278.01 541.55 209.8 551.88 180.86 537.41 139.52"/><polygon class="cls-7" points="537.41 139.52 615.96 218.07 584.95 197.4 597.36 240.8 562.22 189.13 541.55 209.8 551.88 180.86 537.41 139.52"/><polygon class="cls-1" points="599.42 77.51 562.22 114.72 593.22 106.45 605.62 131.25 634.56 135.38 599.42 77.51"/><polygon class="cls-3" points="593.22 278.01 522.94 230.47 485.74 352.42 618.03 352.42 593.22 278.01"/><polygon class="cls-3" points="659.37 282.14 671.77 325.55 620.09 263.54 638.7 327.61 620.09 304.88 618.03 352.42 725.51 352.42 659.37 282.14"/><polygon class="cls-4" points="555.3 326.7 556.46 345.5 536.67 314.84 540.17 345.5 529.69 335.61 519.21 344.51 521.54 332.64 506.41 352.42 580.91 352.42 555.3 326.7"/><polygon class="cls-3" points="384.87 352.46 441.75 352.46 432 301.78 411.33 328.65 417.53 274.91 384.87 352.46"/><polygon class="cls-3" points="318.1 323.01 324.77 342.62 299.76 314.84 306.43 344.25 293.08 332.81 276.41 344.25 283.08 323.01 256.4 352.42 343.12 352.42 318.1 323.01"/><polygon class="cls-4" points="137.8 352.46 119.97 314.84 111.71 343.78 97.24 310.7 82.77 341.71 76.57 314.84 51.77 343.78 64.08 284.21 0 352.42 3.66 352.46 137.8 352.46"/></g></g></svg>