<svg xmlns="http://www.w3.org/2000/svg" viewBox="0 0 1098.38 325.55"><defs><style>.cls-1{fill:#314d84;}.cls-2{fill:#496a9e;}.cls-3{fill:#4e78b5;}.cls-4{fill:#355b93;}.cls-5{fill:#6996cc;}.cls-6{fill:#213e6d;}</style></defs><g id="Layer_2" data-name="Layer 2"><g id="Слой_6" data-name="Слой 6"><path class="cls-1" d="M863.13,238.74l229,86.81h6.24l-63.17-100.77-21.7-7.75-29.46-46.5-15.5,12.4-17-10.85L936,142.62,906.54,186l-41.86-58.91L838.33,79.06,821.28,58.91,812,91.46s-62,57.36-60.46,65.11S863.13,238.74,863.13,238.74Z"/><polygon class="cls-2" points="546.37 325.55 506.58 291.44 444.57 271.29 413.57 218.58 393.41 223.23 323.65 182.93 277.15 103.86 230.64 178.28 185.68 190.68 142.28 265.09 101.97 271.29 53.28 325.55 546.37 325.55"/><polygon class="cls-3" points="160.58 325.55 170.18 289.89 176.38 226.33 140.73 246.49 109.72 217.03 78.72 238.74 44.61 303.85 0 325.55 160.58 325.55"/><polygon class="cls-1" points="166.74 325.55 205.84 296.1 219.79 237.19 270.94 220.13 260.09 168.98 277.15 103.86 230.64 178.28 185.68 190.68 142.28 265.09 101.97 271.29 53.28 325.55 166.74 325.55"/><polygon class="cls-3" points="363.96 224.78 413.57 186.03 439.92 187.58 484.88 139.52 506.58 162.77 518.98 186.03 537.59 167.43 573.24 158.12 584.09 136.42 641.45 122.47 579.44 244.94 455.06 319.4 351.56 266.64 363.96 224.78"/><polygon class="cls-4" points="537.59 167.43 562.39 181.38 551.54 201.53 551.54 226.33 579.44 210.83 594.94 175.18 573.24 158.12 537.59 167.43"/><path class="cls-5" d="M484.88,139.52l-28.62,30.6a48,48,0,0,1,19.32,9.71c9.3,7.75,7.75,37.2,7.75,37.2l20.15-32.55s-7.75-12.4-7.75-17.06,10.85-4.65,10.85-4.65Z"/><polygon class="cls-2" points="439.92 187.58 413.57 186.03 433.72 207.73 443.02 241.84 444.57 206.18 439.92 187.58"/><polygon class="cls-4" points="518.98 186.03 498.83 220.13 498.83 246.49 539.14 232.53 517.43 212.38 518.98 186.03"/><polygon class="cls-2" points="1095.28 325.55 1039.86 291.44 993.35 230.98 928.24 223.23 866.23 158.12 787.17 127.12 754.62 68.21 709.66 0 669.36 48.06 653.85 94.56 615.1 119.37 570.14 209.28 498.83 246.49 463.17 297.64 414.34 325.55 1095.28 325.55"/><polygon class="cls-1" points="804.9 325.55 794.92 279.04 740.67 265.09 680.21 237.19 683.31 198.43 652.3 179.83 677.11 158.12 686.41 108.52 680.21 66.66 698.81 44.96 709.66 0 669.36 48.06 653.85 94.56 632.15 102.31 615.1 119.37 570.14 209.28 608.9 265.09 567.04 246.49 523.63 271.29 498.83 246.49 410.05 325.55 804.9 325.55"/><polygon class="cls-4" points="680.21 66.66 709.66 97.67 722.06 145.72 722.06 88.36 698.81 44.96 680.21 66.66"/><polygon class="cls-4" points="787.17 127.12 761.98 81.53 773.22 127.12 768.57 147.27 798.02 165.88 813.53 184.48 835.23 193.78 815.08 172.08 802.67 148.82 784.07 144.17 787.17 127.12"/><polygon class="cls-5" points="277.15 103.86 260.09 168.98 277.15 184.48 289.55 213.93 286.45 173.63 272.5 161.22 280.25 125.57 284.9 153.47 298.85 167.43 309.7 187.58 308.15 156.57 277.15 103.86"/><polygon class="cls-5" points="709.66 0 698.81 44.96 722.06 88.36 740.67 94.56 749.97 119.37 748.42 80.61 725.16 66.66 714.31 34.1 737.57 58.91 750.53 61.99 709.66 0"/><polygon class="cls-5" points="413.57 218.58 393.41 223.23 412.02 237.19 421.32 277.49 422.87 248.04 444.57 271.29 413.57 218.58"/><polygon class="cls-5" points="652.3 179.83 677.11 158.12 678.66 178.28 703.46 176.73 715.86 206.18 709.66 237.19 705.01 198.43 683.31 198.43 652.3 179.83"/><polygon class="cls-5" points="787.17 127.12 866.23 158.12 892.59 187.58 856.93 162.77 827.48 156.57 816.01 173.42 802.67 148.82 784.07 144.17 787.17 127.12"/><polygon class="cls-5" points="219.79 237.19 270.94 220.13 235.29 241.84 233.74 266.64 205.84 296.1 219.79 237.19"/><polygon class="cls-5" points="109.72 217.03 78.72 238.74 105.07 246.49 109.72 258.89 128.1 234.5 109.72 217.03"/><path class="cls-2" d="M821.28,58.91,812,91.46s13.95,3.1,15.5,14,7.75,24.8,7.75,24.8,4.65-34.11,0-38.76l3.1-12.4Z"/><path class="cls-2" d="M936,142.62l-17,25s13.84,6,15.39,13.77,4.66,20.15,4.66,20.15l12.4-29.45Z"/><polygon class="cls-2" points="984.05 170.53 1013.51 217.03 1035.21 224.78 1064.26 271.12 1027.46 232.53 993.35 215.48 984.05 170.53"/><polygon class="cls-4" points="260.09 168.98 230.64 178.28 185.68 190.68 219.79 193.78 207.39 210.83 239.94 195.33 219.79 237.19 270.94 220.13 260.09 168.98"/><polygon class="cls-6" points="76.78 325.55 152.84 325.55 145.38 319.35 188.78 297.64 191.88 261.99 207.39 226.33 184.13 252.69 177.93 289.89 139.18 306.95 145.38 288.34 165.53 279.04 173.28 244.94 156.23 274.39 126.77 283.69 101.97 314.7 108.17 291.44 76.78 325.55"/><polygon class="cls-6" points="743.13 325.55 729.82 303.85 732.3 261.78 720.51 297.64 725.16 319.35 698.81 297.64 700.52 246.67 680.21 237.19 667.8 274.39 661.95 325.55 743.13 325.55"/><path class="cls-6" d="M616.65,240.29l15.5-37.21-4.65,34.11-18.6,27.9,30.88,60.46h1.14l-11.87-65.11,17.05-23.25,6.2-57.36,24.81-21.71,9.3-49.6-6.2-41.86L664.7,105.42l-4.65,29.45-13.95,7.75c-14,7.75-26.35,24.8-26.35,24.8s0,41.86-7.75,55.81a32.61,32.61,0,0,1-21,16.27l10.66,14.92Z"/><polygon class="cls-4" points="973.2 286.79 997.03 325.55 1059.74 325.55 1044.51 316.25 1036.76 302.3 1013.51 283.69 1001.11 260.44 1002.65 283.69 1024.36 311.6 1007.31 311.6 985.6 286.79 990.25 263.54 959.25 240.29 977.85 266.64 973.2 286.79"/><polygon class="cls-4" points="793.37 246.49 824.38 294.54 831.42 325.55 953.13 325.55 932.89 303.85 937.54 265.09 911.19 218.58 881.74 206.18 897.24 217.03 918.94 263.54 872.44 241.84 872.44 198.43 835.23 178.28 860.03 201.53 853.83 237.19 832.13 210.83 784.07 195.33 754.62 172.08 777.87 203.08 821.28 220.13 852.28 263.54 835.23 263.54 802.67 230.98 751.52 220.13 728.26 179.83 740.67 232.53 793.37 246.49"/><polygon class="cls-6" points="610.57 325.55 593.39 311.6 591.84 280.59 576.34 252.69 580.99 280.59 574.79 308.5 549.99 308.5 563.94 294.54 567.04 246.49 546.89 285.24 506.58 291.44 523.63 271.29 489.53 288.34 459.26 325.55 610.57 325.55"/><polygon class="cls-4" points="305.05 255.79 337.61 308.5 305.48 325.55 423.24 325.55 432.71 305.83 411.41 295.27 400.65 265.33 382.56 240.29 386.65 261.88 385.66 279.04 372.66 267.64 367.27 246.92 360.53 236.3 359.31 263.54 350.05 251.52 344.67 230.8 325.29 212.38 333.9 231.95 332.95 272.84 305.05 255.79"/><polygon class="cls-4" points="216.38 325.55 272.5 325.55 272.5 317.8 294.2 313.15 292.65 300.75 278.7 275.94 275.6 258.89 267.85 275.94 278.7 297.64 261.64 302.3 252.34 275.94 274.05 238.74 243.04 269.74 247.69 306.95 216.38 325.55"/></g></g></svg>