<svg xmlns="http://www.w3.org/2000/svg" viewBox="0 0 2000 2000"><defs><style>.cls-1{fill:#fff;}.cls-2,.cls-3,.cls-4,.cls-5{fill:#231f20;}.cls-3{font-size:550px;font-family:A-little-sunshine, A little sunshine;letter-spacing:-0.02em;}.cls-4{font-size:500px;font-family:Stea;}.cls-5{font-size:60px;font-family:SuperStars, Super Stars;}</style></defs><g id="Layer_2" data-name="Layer 2"><g id="BG_Shape" data-name="BG Shape"><circle class="cls-1" cx="1000" cy="1000" r="1000"/></g><g id="Layer_1-2" data-name="Layer 1"><path class="cls-2" d="M1300,1427.06c-4.08-3.26-9.9-2.74-13.62-.76-5.06,2.68-7.22,8.61-9.83,15.76-2,5.42-2.93,10.84-4.68,10.81-.63,0-.81-.71-3.42-3A29.49,29.49,0,0,0,1266,1448a12.11,12.11,0,0,0-6-2.4,10.44,10.44,0,0,0-5.49,1.23,15.35,15.35,0,0,0-7.66,18.44,6.17,6.17,0,0,0,2.43,3.28,5.39,5.39,0,0,0,4.68.51c1.91-.76,2.71-2.63,3.75-5.06.74-1.75.54-2,1.38-4.43,1.15-3.38,1.87-5.59,3.47-6,1.36-.39,2.9.63,3.45,1a6.15,6.15,0,0,1,1.39,1.28,12.24,12.24,0,0,1,1.11,1.64,12.6,12.6,0,0,1,.86,1.9,45.61,45.61,0,0,1,1.87,7,66.82,66.82,0,0,1,1.68,13.86,5.94,5.94,0,0,1-1,3.77c-1.7,2.27-5,2.31-6,2.28l.25,2.07,23-.34c-.12-1-.24-2-.35-3.05a8.27,8.27,0,0,1-4.3-.27,8.55,8.55,0,0,1-1.91-1c-1.84-1.38-3.27-4.17-4.48-11a49.66,49.66,0,0,1-1-7.6,43.86,43.86,0,0,1,1.87-14.44c1.58-5.16,2.9-9.52,6.77-11.19a7.45,7.45,0,0,1,4.06-.66c3.73.51,6.89,5.46,9.32,5.74a3.86,3.86,0,0,0,1.11,0,4.3,4.3,0,0,0,1.19-.55c2.68-1.74,2.68-5.88,2.68-7.12C1304.17,1435.81,1304.17,1430.4,1300,1427.06Zm-40.81,23.75c-2.24,1.75-3,5.31-5,11.79-.18.57-.59,1.81-1.52,2.06a1.72,1.72,0,0,1-1.22-.2c-1.75-1-2.16-6.13,0-10a10.35,10.35,0,0,1,6.17-4.87,10,10,0,0,1,4.92,0A6,6,0,0,0,1259.17,1450.81Zm39.25-10.88c-1.69.76-4.08-4.79-9-5.55a8.89,8.89,0,0,0-5.3,1c2.67-4.89,7.82-6.7,11.11-5.12a7.63,7.63,0,0,1,3.87,5.72C1299.18,1436.38,1299.59,1439.4,1298.42,1439.93Z"/><text class="cls-3" transform="translate(390.07 1494.26)">Startup</text><text class="cls-4" transform="translate(326.28 903.46)">Kutty</text><path class="cls-2" d="M294.49,745.68a34,34,0,0,1-12.55-10.89,26.75,26.75,0,0,1-3.32-8.26c13.84-8,20.68-17.81,23.83-23.27,3.59-6.21,8.94-15.5,5.1-23.2a15.28,15.28,0,0,0-8.08-7c-7.52-2.91-14.53,1.21-16.09,2.12-1.34.79-6.88,4.25-11.66,17a74.94,74.94,0,0,0-4.34,32.4,38.43,38.43,0,0,1-6.81,3.24,39.77,39.77,0,0,1-12.68,2.3,40.39,40.39,0,0,1-17.61-3.83,39.94,39.94,0,0,0,16.42,6.89,43.49,43.49,0,0,0,14,0,45.62,45.62,0,0,0,8.59-2.23A40.88,40.88,0,0,0,277,744.45c22,25.57,69,12.45,71.29,11.79l.24-10C324,751.88,303.94,750.61,294.49,745.68Zm-17.33-39.35a56.3,56.3,0,0,1,1.92-8.38,32,32,0,0,1,3-7.23c1.23-2,5.38-8.92,11.26-8.78.75,0,3.55.08,5.06,2,4.63,5.86-8.16,22.34-9.06,23.49-4.57,5.83-11.69,12.48-12.48,11.84a.29.29,0,0,1-.07-.2c-.19-2.76-.25-4.14-.23-4.62A61.89,61.89,0,0,1,277.16,706.33Z"/><path class="cls-2" d="M1146.34,850.23q7.82-16.18,16.45-32.89,13.41-25.9,27.06-49.53c1.78.15,4,.66,5.11,2.3,2,2.88,0,7.73-6.08,18.1-4.32,7.31-13.25,22.41-18.56,34-.76,1.66-2.64,5.81-5.47,11.78-1.27,2.69-2.79,5.82-4.61,9.48-1.68,3.36-3.41,6.94-5.11,10.39"/><text class="cls-5" transform="matrix(0.8, -0.61, 0.61, 0.8, 1642.61, 728.28)">a</text></g></g></svg>