<svg xmlns="http://www.w3.org/2000/svg" xmlns:xlink="http://www.w3.org/1999/xlink" viewBox="0 0 1421.02 1423.34"><defs><style>.cls-1,.cls-23,.cls-8{fill:none;}.cls-2{clip-path:url(#clip-path);}.cls-3{stroke:#77b2ae;stroke-width:3.7px;fill:url(#linear-gradient);}.cls-10,.cls-11,.cls-12,.cls-13,.cls-14,.cls-15,.cls-16,.cls-17,.cls-18,.cls-19,.cls-20,.cls-21,.cls-22,.cls-23,.cls-24,.cls-25,.cls-26,.cls-27,.cls-28,.cls-3,.cls-32,.cls-5,.cls-6,.cls-7,.cls-8,.cls-9{stroke-miterlimit:10;}.cls-4{fill:#9e8a71;opacity:0.56;}.cls-10,.cls-11,.cls-13,.cls-14,.cls-16,.cls-24,.cls-25,.cls-26,.cls-27,.cls-29,.cls-30,.cls-31,.cls-32,.cls-4,.cls-9{isolation:isolate;}.cls-5{fill:#8e7555;}.cls-14,.cls-5,.cls-9{stroke:#8e7555;}.cls-13,.cls-18,.cls-19,.cls-22,.cls-5,.cls-6{stroke-width:1.03px;}.cls-6{fill:#c4af99;stroke:#c1ab8e;}.cls-17,.cls-7{fill:#c9b59b;}.cls-7{stroke:#d1b89d;}.cls-10,.cls-12,.cls-14,.cls-15,.cls-16,.cls-17,.cls-23,.cls-7,.cls-9{stroke-width:1.5px;}.cls-11,.cls-8{stroke:#b59b74;}.cls-8{stroke-width:5px;}.cls-14,.cls-9{fill:#87715f;}.cls-9{opacity:0.68;}.cls-10,.cls-12{fill:#b59b74;stroke:#bfa582;}.cls-10{opacity:0.37;}.cls-11{fill:#a8906f;opacity:0.46;}.cls-13{fill:#998570;stroke:#937d65;}.cls-13,.cls-14{opacity:0.25;}.cls-15{fill:#e2ceb5;stroke:#e2ceb5;}.cls-16{fill:#d1bca7;stroke:#d6c2ab;opacity:0.92;}.cls-17{stroke:#ccb59b;}.cls-18{fill:#c1aa95;stroke:#c1aa95;}.cls-19{fill:#003838;stroke:#003838;}.cls-20,.cls-21,.cls-22,.cls-25,.cls-28{fill:#00292a;}.cls-20,.cls-21,.cls-22,.cls-23,.cls-26,.cls-27,.cls-28,.cls-32{stroke:#00292a;}.cls-21{stroke-width:0.8px;}.cls-24,.cls-26,.cls-27,.cls-29,.cls-30,.cls-31,.cls-32{fill:#26605d;}.cls-24,.cls-25{stroke:#00605d;}.cls-24,.cls-25,.cls-28{stroke-width:0.97px;}.cls-24,.cls-27,.cls-29{opacity:0.17;}.cls-25{opacity:0.19;}.cls-26{opacity:0.75;}.cls-27{stroke-width:1.38px;}.cls-30{opacity:0.22;}.cls-31,.cls-32{opacity:0.12;}</style><clipPath id="clip-path" transform="translate(1.65 1.85)"><circle class="cls-1" cx="709.82" cy="709.82" r="709.82"/></clipPath><linearGradient id="linear-gradient" x1="166.07" y1="512.35" x2="1241.74" y2="1795.72" gradientTransform="matrix(1, 0, 0, -1, 1.65, 1871.61)" gradientUnits="userSpaceOnUse"><stop offset="0.01" stop-color="#cfeae6"/><stop offset="0.45" stop-color="#b8e1db"/><stop offset="1" stop-color="#93d3cb"/></linearGradient></defs><g id="Layer_2" data-name="Layer 2"><g id="Layer_1-2" data-name="Layer 1"><g class="cls-2"><g id="Layer_2-2" data-name="Layer 2"><g id="bg"><rect class="cls-3" x="1.85" y="1.85" width="1417.32" height="1419.65"/></g><g id="face_and_neck" data-name="face and neck"><path class="cls-4" d="M369.6,878.32s-11.81,140.77,34.76,226.56c9.25,23.78,66.49,54,98.59,99.8,23.37,33.38,35.79,104.09,66.23,125.18,30.78,21.32,74.17-46.21,107.82-58.23s57.56,31.46,89.7-34.79C909.19,943,601.25,925.11,601.25,925.11Z" transform="translate(1.65 1.85)"/><path class="cls-5" d="M333.35,660.05c6.06-8.18-118.07-5.11-63.1,78.64,108.15,164.77,144.26,85.9,86.41,50.49C329.08,772.3,333.35,660.05,333.35,660.05Z" transform="translate(1.65 1.85)"/><path class="cls-6" d="M357.6,463.88l-8.74,276.7,235.92,390.3L777,1090.11l98.07-145.63,16.5-46.6s40.77-61.16,33-155.34C997.39,700.8,1010,611.47,1010,611.47L901.28,448.37,704.2,367.79,366.33,389.14Z" transform="translate(1.65 1.85)"/><path class="cls-7" d="M452.72,699.44l-9.26,43.77V766l-16.84-17.68.84,25.25,10.1,14.36-13.48,5.85,32.84,29.46,3.37-23.57,20.2,26.1-3.36-48.84,16,23.57,23.57-6.73s49.67,29.46,47.15,44.62,29.46,55.54,29.46,55.54l-12.62,36.2s-24.42,14.32-24.42,26.1c25.26-13.47,39.57-3.36,39.57-3.36l29.47-10.11L653.93,957,698.55,952l-13.47-64.79-13.47-14.3,16-51.36,26.94-52.2-41.26,9.26s-86.71,9.3-110.28-21.9-58.93-16.8-72.41-48.8S452.72,699.44,452.72,699.44Z" transform="translate(1.65 1.85)"/><path class="cls-8" d="M921.7,669.76c-119.9.12-110.17,77.79-105.82,87.38" transform="translate(1.65 1.85)"/><path class="cls-9" d="M857.67,563.88,633.44,495.42l27.24,67.35,49.4,92.57c-16.84,9.1,45.77,35.42,28.15,48.63,8.91,6.28,22.49,18.29,30.14,26,2.28-.4,6.5,3.43,8.86,3l8.77,4.28c.79,1,1.56,2.08,2.32,3.14a9.63,9.63,0,0,1,1.61,7.68l2.17,6q6.9,7.44,13.87,14.81l9.43-13.71,7.75,61.36s10.1-30.31,30.31-37,85.87-42.1,85.87-42.1l21.1-45.22Z" transform="translate(1.65 1.85)"/><path class="cls-10" d="M390.92,786.73s-.47-2-1.18-5.42c-3.59-17.38-13.29-72.91-.31-112.46,15.57-47.44,25.37-70.13,25.37-70.13s13.43,0,13.43,10.45,9-74.61,9-74.61,29.84-58.19,40.29-41.77,26.85,11.93,26.85,31.33c29.8-40.24,38.71-58.19,50.71-31.33S629.68,460,629.68,460l6-128.32-265.6,132.8L311.88,651Z" transform="translate(1.65 1.85)"/><path class="cls-11" d="M841.08,861c-13.59-15.53-25.24-103.88-25.24-103.88l-.48-2s-4.06,1.36-4.06.9.45,19.85.45,18.5,4,48,9.47,58.64,25.9,58.15,25.9,58.15c-1.82,13.67-16.84,25.09-16.84,25.09s-12.75-3.64-25.51,10S775.62,931,775.62,931l-9.11-21.86-2.61-2h-.52c-3.85-.22-7.38,1.2-11.62,1.87a30,30,0,0,1-10,0c-6,6.23-14.11,12.07-21.72,9.22-14.58-5.47-15.49-11.85-15.49-11.85s6.28-17.79,4.56-15.48c-3.51,4.71-15.75-16.26,43.72-31.88-10.93-10,4.56-29.15,0-36.44s-15.48-1.82-15.48-1.82c-4.56,20-25.63,33.85-40.54,54.73s-2.56,39.21,7.67,44.32,44.12,1.54,52.84,2.56c6.67.78,9.79,13,22.58,16.19,31.08-3,26.93-14.43,50.48-16.35C858.6,902.77,854.71,876.55,841.08,861Z" transform="translate(1.65 1.85)"/><path class="cls-12" d="M581.91,486.82s58.19,103,53.72,116.38,26.86,25.37,26.86,25.37L664,597.23,598.33,436.09Z" transform="translate(1.65 1.85)"/><path class="cls-13" d="M748.24,720.93c-13.57-13.53-27.83-27.16-35.85-44.9-2.11-4.65-2-9.92,1.1-13.69-7.81-8.44-15-17.47-20.22-27.72a12.2,12.2,0,0,1-.49-10.5L562.43,643.05,516.72,660.7l-13.5,12.47,21.86-3.12-6.23,8.31,15.58,5.2,24.93,18.69,32.2,2.08,29.09,6.23,9.35,5.2-26,11.42,62.32,9.35,35.32,1,12.44,14.58,26-11.42,10-18.27A12.62,12.62,0,0,1,748.24,720.93Z" transform="translate(1.65 1.85)"/><path class="cls-14" d="M544.64,608.11l-17.91,19.4L555.08,629,570,633.48l-19.39,6,23.87,16.4,70.13,4.48,47.75,44.76s44.72,31.31,44.72,49.22,29.84-17.91,29.84-17.91l11.94-11.93-31.34-70.13,43.31,4.51-14.92-44.8s52.23,16.41-14.92-4.47-88-91-88-91l-43.3-53.73L661,578.28,587.86,439.45l-3,63.85c25.4,19.59,41,88.78,60.6,96.39,55.21,21.47-92-11.33-92-11.33Z" transform="translate(1.65 1.85)"/><path class="cls-15" d="M927.34,751.68s-.91,91.8-36.9,152.22-48.56,63.16-48.56,63.16l-6.21-12.34,54.41-71.08C883.7,908.24,916.08,803,927.34,751.68Z" transform="translate(1.65 1.85)"/><path class="cls-16" d="M760,833.3l-16,13.47,16,18.52s2.79-1.73,6.57,5.55a43.08,43.08,0,0,1,10-6.23c1.17-.55,2.34-1.08,3.46-1.7.55-.31,1.08-.66,1.63-1l.09-.09a2,2,0,0,1,.08-.33c0-.11,0-.41,0-.77a12.42,12.42,0,0,1,1.55-5.71l-16.66-12.49,1.69-15.16,6.73,1.69L773.47,739l-15.15-17.68,6.76,15.19-.84,80.82Z" transform="translate(1.65 1.85)"/><path class="cls-17" d="M477.41,705.27S457.92,617,479.47,617s71.83-19.5,71.83-19.5l70.78-18.47-41-43.1s-7.19,25.66-41.05,24.63-52.34-30.79-52.34-30.79l-38,26.68S439.42,654,419.93,665.25s-43.1,21.55-43.1,21.55,78,52.33,79,59.52S477.41,705.27,477.41,705.27Z" transform="translate(1.65 1.85)"/><polygon class="cls-4" points="610.41 1013.94 643.25 1022.15 663.77 1031.39 708.92 1065.25 742.79 1072.43 778.7 1111.43 822.83 1025.23 836.17 980.08 801.28 951.35 688.4 974.95 610.41 1013.94"/><polyline class="cls-18" points="736.6 1046.65 743.92 1067.15 800.49 1026.75 790.56 1016.56 736.6 1046.65 736.6 1046.65"/></g><g id="Hair"><polygon class="cls-19" points="830.01 647.59 830.55 656.77 835.14 652.21 839.72 655.69 844.04 656.23 845.66 662.16 848.36 656.23 856.99 651.37 872.1 658.39 873.72 661.08 880.19 652.45 885.59 656.77 893.14 660 894.22 662.7 897.46 656.77 902.86 663.78 906.1 644.9 900.7 619.53 855.37 634.64 843.5 619.53 849.98 635.72 831.63 623.31 827.31 635.18 822.46 638.96 831.09 640.58 825.69 643.82 828.39 651.37 830.01 647.59"/><path class="cls-19" d="M515.14,579.35l1.82,10-9.1,5.46,3.64,7.29-5.42,3.66,17.31,1.83s-3.64,10-8.2,8.19,15.49-.91,15.49-.91,51.92,2.74,56.48,11.84c25.5,1.83,85.62,10,90.18,18.22L691,640.38l9.11.91,5.46-6.38-1.82-5.46-2.73-10h-7.34S629,582.08,590.75,583.88C585.35,584.16,538.83,572.06,515.14,579.35Z" transform="translate(1.65 1.85)"/><polygon class="cls-19" points="545.05 588.24 534.33 575.48 544.54 579.56 542.5 574.97 556.79 583.65 564.44 579.05 568.52 583.13 576.69 579.05 572.61 584.16 594.55 589.77 582.3 580.07 602.21 589.26 619.05 587.73 627.22 592.32 637.42 592.32 643.04 597.43 651.2 597.43 654.77 607.12 683.87 628.56 698.67 618.86 699.69 623.45 707.34 625.49 702.75 629.07 709.38 633.15 701.73 634.17 707.85 640.3 694.58 638.25 676.72 640.3 674.17 646.42 664.98 639.27 627.22 625.49 602.72 632.64 595.06 623.45 576.18 624.98 563.42 616.82 547.09 621.41 533.82 609.67 520.55 618.86 509.83 618.35 524.12 612.74 527.19 602.02 515.45 612.23 518 601.51 509.83 591.81 523.61 594.36 525.65 585.18 547.6 589.77 545.05 588.24"/><polygon class="cls-19" points="530.8 595.93 511.37 585.14 525.4 588.37 512.45 577.04 529.72 585.14 530.8 595.93"/><path class="cls-20" d="M996.08,725.55s59.22,22.11,101.06-24.47c-26,54.48-45,96.32-104.21,75,24.47,18.95,63.16,3.16,63.16,3.16s-35.53,22.11-64.74,9.48c0,0,104.21,40.26,120.79-84.48-15,86-29.21,91.58-52.89,98.69,51.31-.79,63.64-119.85,67.59-104.06,0,0-.52,110-88.69,132.26,98-30.09,85.58-99.58,98-134.33-5.7,55-18.15,106.32-64.83,130.18,48.8.2,87.72-108.26,73-192.12,0,0,31.28-118.7.92-191.39s-115-134.34-125.14-126c0,0-64.54-222.19-371.73-223.6C533.9,93.3,375.2,200.62,372.08,230c0,0-138.56,40.5-171.69,104,0,0,56.13-57.05,60.73-39.57,0,0-68.09,46.93-71.77,90.18,0,0,22.08-61.65,73.61-72.7l-46.88,54.22s42.2-40.64,42.2-23.44-29.69,28.13-29.69,28.13,7.81,14.07,25,4.69S217.65,466.15,213,464.59s23.44-10.94,28.13-3.13S221.78,492.68,213,495.88c-6.6,2.37,31.52-8.56,33.22-33.18,0,0-40.75,69.61-36.5,113.75,0,0,11.88-68.76,20.37-62.81s-22.92,39-34,47.53c25.47-3.39,39-27.16,39-27.16s-22,59.39-10.14,77.22c1.69-24.62,10.18-48.39,10.18-47.54s1.7,97.62,15.28,108.66l-2.54-34.81s28.86,26.34,27.2,60.28-13.58,64.51-1.7,67.91c-.85-16.13,1.7-16.13,10.19-55.18s5.09,34.8,0,42.44l16.13-7.64s25.47,43.3,36.5,72.16,62.19,145.9,62.82,196.94c.62,49.81,128,78.33,191,197.8,0,0,115.64,72.16,187.61-2.55,41.29-42.87,27.84-135.34,48.38-178.27,37.34-17,88.19-119.76,84-170.63-27.43,52.74-125.64,170.63-113.76,169.78-21.22,60.28-28,51.79-28,51.79l-27.22-27.17c-.11-4-8.65,2.55-54.32-7.64l-49.24,44.14S528.92,1049.24,540.77,930c0,0-115.57-114.45-117.81-122.31s-83-65.08-57.23-170.55S405,621.41,405,621.41l-11.22-59.47s30.3-1.12,35.91,31.42c0,0,2.62-12.62-23.57-48.25-13-17.68,31.78-89.52,59.47-98.75,10.1-3.36,61.72-23.56,64,2.25s-35.9,80.79-35.9,80.79,47.12-59.47,57.22-75.18-15.71,59.47-15.71,59.47,33.67-50.5,44.89-61.72,74,208.71,189.59,291.74,202-58.34,190.75-51.61-16.83,58.35-117.82,67.32S623.81,489,649.61,514.81s157.8,140.48,171.22,191.8c0,0-53.68-124-136.58-179.22-.2,2.6,110.15,97.12,115.27,100.26,30,34-2.37,12.64,45,37.9,0,0-87.64-85.27-70.27-104.21C794,596.07,855.57,658.45,878.47,676.6c-21.32-30.79-42.28-54.4-37.9-55.26,39.27-7.72,148.16,98.86,58.42,105.79-40.91,3.17-66.3-85.25-66.3-85.25S864.27,764.25,924.27,765c0,0,101.85,34,129.48-66.32,22.58-24.79,7.8-25,34-11.84,22.67,11.4-56.85,61.58-90.8,35.53" transform="translate(1.65 1.85)"/><path class="cls-20" d="M1037.08,697.88s52.74-23.64,56.38,25.46,23.62-89.16,23.62-89.16l-85.47,16.36Z" transform="translate(1.65 1.85)"/><path class="cls-20" d="M367.86,248.65c34.1-13.73-63.47-16.86-120,0,120,14.55,83.65,50.92,81.83,49.1S367.86,248.65,367.86,248.65Z" transform="translate(1.65 1.85)"/><path class="cls-20" d="M431.51,277.75C357,277.75,398.78,165,398.78,165c-41.83,54.56-18.19,90.93-18.19,90.93Z" transform="translate(1.65 1.85)"/><path class="cls-20" d="M1147.7,481.52s33.56,108,17.87,151.59c-29.65-117.66-35-88.64-49.23-107.8S1147.7,481.52,1147.7,481.52Z" transform="translate(1.65 1.85)"/><path class="cls-20" d="M1099.66,399.1c10.55-31.75,80.57,40.63,93.67,132.29-8.82-38.84-99.11-152.87-158.23-142.82,122.92,91.33,127,36.11,151.22,185.86-86.48-323.74-184.82,40.81-184.82,40.81Z" transform="translate(1.65 1.85)"/><path class="cls-20" d="M581.77,131s131-69.84,272.47-37.5c-404.36,41-302.5,114.31-291.81,123.66,22.84-49.61,196.29-216,421.06-21.61C686.65,24,693,226,693,226Z" transform="translate(1.65 1.85)"/><path class="cls-21" d="M852.28,134.79S978,189.1,992.08,238.14c-.71-4.41-186.15-151.9-152.93-41.1C871.56,305.13,852.28,134.79,852.28,134.79Z" transform="translate(1.65 1.85)"/><path class="cls-22" d="M1099.37,559.55c-21.79-.53,133.16-11.6,64.78,84.44,99.35-132.43-80.72-100.77-48.21-111.39,48-15.68,160.35,97.47,63.38,171.2,122.54-118.91,3.43-166.26-61.13-210.31-71.76-48.95-71.23,14.16-71.23,14.16Z" transform="translate(1.65 1.85)"/><path class="cls-22" d="M580.49,1013.88l65.59-64.6,12.36,2.85,16.15-1s29.46-8.55,32.31-8.55,34.2-15.2,44.66-9.5,24.7,9.5,24.7,9.5,31.36-7.6,35.16-10.45S839.93,953,839.93,953l8.55,12.35-27.56,39-18-28.5c-2.42,4.44-28.09-10.73-29.46,3.8-12.35-5.7-25.65,3.8-25.65,3.8l-34.21-4.75-35.16,10.45-23.76,18.05h-17.1l-15.2,2.85-20.91,9.51Z" transform="translate(1.65 1.85)"/><path class="cls-23" d="M954.94,616.63c6,6-146.23,104.45-91,168.61" transform="translate(1.65 1.85)"/><path class="cls-24" d="M393.45,295.78S387.77,313.3,383,357.49l17.49-65.67s10,82.31-8.1,88.16c14.28-2.25,23.2-66.56,23.2-66.56C431,324,454.11,428.76,366.4,391.55c43,21.93,85,8.75,80-59,23,137.18-28.51,79.38-28.51,79.38,25.53,41.32,63.91-1.81,42.65-54.64,42.24,17.33,40.08,106-92.54,128.39,0,0,122.07-5.71,144.63-85.65C515.37,464,483,463.1,483,463.1c41.61,4,42.57-83.08,42.57-83.08C603.32,457.88,752.3,539,779,418.08c-49.15,132.79-196-16.79-219.64-28.39,54.41,9.66,69,65.56,151,69.94-60.4-4.66-125.16-90.3-159.82-106.58,0,0,57.73,29.93,63,24.59,0,0-58.07-18-88.87-48.78,0,0,102.65,55.65,127.86,26.26-5.68,10.52-78.62,8.26-131.5-49.42,64.15,21.57,101-7.4,101-7.4s-63,28-159.11-24.74c135.77,34.62,89.18-19.11,89.18-19.11,15.46,35.86-24.49,31.36-133.76,2.94,119.65,16.23,96-7.75,96-7.75,6.47,9.1-25.39,17.22-116.84-5.37,51.62,1.82,43.8-18.24,48.5-21.75,0,0-16.13,27.4-51.42,13.73,11.15-2.88,12.17-10.39,12.17-10.39s-11.72,9.75-17.44,5l-2.65-6.37-.4,11.39H368l13.18,3-31.35,4.36,29,1.66s17,34.08-18.13,32.25c0,0,16.29,8.74,29,5.05S362.38,330.05,339,321.88c39.11,7.64,57.57-31.05,54.45-26.08Z" transform="translate(1.65 1.85)"/><path class="cls-25" d="M415.19,274.88l.67,17.43,3.35-16.76,6,11.4,3.35,17.43,2-18.77L444,309.08,442.63,348l8.72-41.57-4-7.38,15.43,13.41,4,28.83,2.68-22.12,17.43,39.56-8.71-38.89,21.45,32.85,6.71,26.15-2.68-31.51-11.4-18.78s28.83,25.48,36.21,26.15c-22.8-7.37-26.83-35.53-26.83-35.53a17.49,17.49,0,0,1-14.08-2.69l19.52-2.72-34.2-6L489.65,301l-20.79.67-11.4-5.36,19.45-.67,10-4.7-12.07.67-30.17-2,10.06-6.7-12.74,2-10.5-7.15,9.16-2.24-14.78-2.66-4.7-11.4v6l-14.08-1.35,9.39,4-18.1,4.75Z" transform="translate(1.65 1.85)"/><path class="cls-26" d="M686.76,1047.56s-7.9,32.89-26.74,35.86a50.37,50.37,0,0,0,32.72-30.73l-5,17.84,8.92-14.86s0,29.73-6.94,26.76c14.87-4,12.89-26.76,12.89-26.76s6.94,18.83,3,30.72c12.89-13.87,4-32.71,4-32.71l6.94,8.92-2,23.79,7.93-22.79-1,26.76,6.94-31.72,2,18.83,4-19.82s-3,23.79,6.94,28.74c-4.21-8.74-5.87-9.4-4.88-27.92,2.32,14.88,6,22.82,6,22.82l-4.3-24.14s2,18.84,12.23,27.44c-6.61-12.89-8.26-21.49-8.26-21.49s3,12.89,14.87,17.52c0,0-5.62-4.29-14.87-21.16a48.5,48.5,0,0,1-8.27-4l-6.61.33-8.93.34-3.64-3-7.27-.66-5.62.66-2-1.32-4.63-2h-4.63Z" transform="translate(1.65 1.85)"/><path class="cls-27" d="M270.88,367.88s-17,62.17-37.77,63.77c0,0,35.87-11.67,49.81-37.56,0,0-61.34,97.68-104.55,108.27,0,0,68.3-8.24,108.73-82.38-33.46,82.38,32.06,178.87,32.06,178.87,5.65,26.1-45.16-123.36-23.7-157.69,13.28-21.22,101.76,40,101.76,105.92-2.78-101.2-83.64-131.84-83.64-131.84l58.55,12.94-73.88-29.42s97.58,10.59,86.43-37.66c-15.34,23.54,4.18,29.42-71.1,24.72,0,0,41.82-36.48,83.64,8.23,0,0-8.36-48.24-99-31.77,99-25.89,11.15-117.68,11.15-117.68S373.5,334,292.65,343.45l-4.19-25.89v44.72L262,338.74l32.1,43.55-49.9-46.76Z" transform="translate(1.65 1.85)"/><path class="cls-24" d="M608.93,218.88s46.69-73.38,104-84c-53.7,26.68-100.63,90.55-94.65,90.49Z" transform="translate(1.65 1.85)"/><path class="cls-24" d="M589.08,243.63s106.64-56.41,212.65-5S884.18,230,884.18,230c14.39,36.63-1.87,42.19-110.35,13-108.7-29.22-176,23-176.07,19.84Z" transform="translate(1.65 1.85)"/><path class="cls-24" d="M781.9,265.33s108.49,44,118.41,6.2c0,0,16.12,45.26-113.45,13.64,74.4,57,202.73,36.58,161.19-22.32,28.52,40.92,1.24,87.42-164.29,44,0,0,10.54,136.39,133.91,156.85C757.08,475.5,739.08,311.21,739.08,311.21s-39,71.29-5.58,93c-56.41-30.38-1.24-106.63-1.24-106.63s-48.35,54.56-86.17,22.94c0,0,46.5,18,57.66-14.88,7.44-.62,14.87-11.78,14.87-11.78l20.46-11.79s29.8,160.57,116,168c-60.88-51.76-68-79.52-83.08-129.57C758.08,274.27,757.08,310,757.08,310s-8.63-41,1-35.7,11.44,12.14,11.44,12.14-6.82-24.18-4.34-22.32S777,291.37,777,291.37l-1.88-21.08L790,279Z" transform="translate(1.65 1.85)"/><path class="cls-28" d="M727.15,280.27c.8,2.41,3.21,13.24,3.21,13.24l3.21-4,4.82,12-7.23,13.64,10-14.44-2-14,6.42,12.84L738.36,273Z" transform="translate(1.65 1.85)"/><polygon class="cls-28" points="583.16 244.41 600.41 246.42 614.86 246.82 594.39 251.63 632.11 250.02 630.9 264.07 607.63 281.32 587.97 274.9 583.16 244.41"/><polygon class="cls-28" points="618.87 228.76 632.51 199.87 612.05 231.17 621.68 210.3 606.43 222.74 591.99 233.98 602.42 236.79 609.64 234.38 617.26 232.37 618.87 228.76"/><polygon class="cls-20" points="650.54 254.63 686.88 231.98 675.29 250.41 705.31 227.77 694.25 244.1 704.78 238.83 722.16 239.36 729.53 238.83 728.48 235.14 767.45 239.36 730.06 254.63 647.38 259.37 650.54 254.63"/><polygon class="cls-20" points="597.88 451.57 558.39 402.07 601.04 445.78 597.88 451.57"/><polygon class="cls-20" points="479.4 403.13 479.93 437.35 485.72 403.65 479.4 403.13"/><polygon class="cls-20" points="423.58 385.75 438.33 354.15 424.63 367.84 423.58 385.75"/><polygon class="cls-20" points="243.49 467.37 266.66 457.36 241.38 480.54 243.49 467.37"/><path class="cls-24" d="M730.25,158.88s44.68-70.51,117.06-30.08c0,0-32.89-13.08-46.27,2.41,30.89,2.34,127,42.49,132.31,95.8,0,0,7-30.5-96.31-73.27,0,0,34.07,42.5,15.66,65.38C847,173.58,801.94,137,785.79,151s-21.38,25.27-21.38,25.27Z" transform="translate(1.65 1.85)"/><path class="cls-24" d="M897.24,375.69s63.33,26.71,96.13,0c-51.88,43.49-122.07-3.05-122.07-3.05s24.42,35.86,64.09,33.57c-57.22,12.21-90.79-43.49-90.79-43.49L862.91,352c10.68,5.34,120.55,13,130.46-32,0,0,6.87,42-93.84,58.74" transform="translate(1.65 1.85)"/><path class="cls-24" d="M898.6,475.88s148-14.5,126.65,87c-4.42-40-10.1-64.52-56.46-61,29,16,65.62,3.81,100,71,0,0-30.52-52.64-89.27-45.78,37.39,9.16,132,79.35,89.27,167.85,0,0,51.12-118.25-131.23-167.85,42,28.23,106,57.23,80.11,111.39-1-45.23,17-25.36-135-131.22Z" transform="translate(1.65 1.85)"/><path class="cls-24" d="M766.77,505.71s7,46.84,73.74,64.77c0,0-61.78-33.88-51.82-42.85,26.91,15,74.74,55.81,115.6,50.83-25.91-13-24.92,9-99.65-54.81,81.71,27.9,31.88-48.83,31.88-48.83,7,39.86,21.93,52.81-28.89,38.86-1-17.93-15-29.89-15-29.89Z" transform="translate(1.65 1.85)"/><path class="cls-29" d="M510.52,165.05s54.56-77.17,161.32-82.63c-33,14.5-60.3,21.93-110.81,52.28,46.09-5,71.8-41.44,117-4.06-23.14-10.62-40.79-6.85-49.44-4.26,18.26,1.55-15.23-10.79-65.05,28.68,67-9.15,67.64-.06,72.94,28.34-6.6-25.71-48-28.54-90.74-.14Z" transform="translate(1.65 1.85)"/><path class="cls-29" d="M1029.08,417.22s122.23-13.58,118.83,122.22c-20.37-34-23.76-135.8-176.54-96.75,44.13,5.09,146,23.76,224.07,35.64-47.77,3.19-224.07-10.18-219,3.4s139.2-45.83,224.07,135.8c-47.53-35.65-37.34-61.11-113.73-79.78-22.07-22.07,42.44,20.37,44.14,73-25.47-44.14-195.22-139.2-195.22-139.2l52.62-71.29,44.14,8.49Z" transform="translate(1.65 1.85)"/><path class="cls-29" d="M956.08,650.88s20.62,74.25-33,98C981.86,721,991.14,653,946.8,606.56c0,0,124.78,128.91,23.72,149.54,0,0,111.37-20.63-2.06-161.91C917.92,555,925.14,604.5,925.14,604.5Z" transform="translate(1.65 1.85)"/><path class="cls-29" d="M277.53,581.8S301.25,653,256.9,675.65C318.78,636.46,282.69,554,282.69,554s58.78,139.22,19.59,181.5c30.94-51.56,7.22-149.53,7.22-149.53s43.31,37.12,39.19,59.81c0,0,9.28-41.25-17.54-71.15l-30.93,3.09-22.69-29.91Z" transform="translate(1.65 1.85)"/><polygon class="cls-29" points="331.77 663.06 324.55 747.62 340.02 667.19 348.27 731.12 346.21 653.78 334.87 668.22 331.77 663.06"/><path class="cls-29" d="M334.25,529.21s35.06,23.72,28.87,56.72c0,0,19.6-35.06-32-74.25C326,523,334.25,529.21,334.25,529.21Z" transform="translate(1.65 1.85)"/><polygon class="cls-29" points="308.05 521.78 320.43 570.25 312.18 501.16 355.49 592.94 316.3 490.84 308.05 521.78"/><polygon class="cls-29" points="259.59 544.47 278.15 647.59 255.46 554.78 247.21 603.25 250.3 532.09 259.59 544.47"/><path class="cls-28" d="M875.25,524.11,913.4,554s1-32-43.31-52.59c20.63,4.12,43.31,24.75,43.31,24.75l-38.15-36.1s82.5,22.69,86.62,40.22c1-30.94-91.78-49.5-91.78-49.5l67,13.41-55.65-20.63-26.82-4.12Z" transform="translate(1.65 1.85)"/><path class="cls-28" d="M749.84,516.88s35.06-9.29,40.22,4.12c-2.06-39.19-87.66-6.19-87.66-6.19L779.75,487l-20.67-7.26-9.24,4.17,11.34,22.68,30.9-8.29-46.4-7.21,35.06-18.57s23.72,28.88,20.62,37.13,8.25-23.72-3.09-52.6-32,9.29-32,9.29l-40.19,28.87-43.31,4.13,19.59,44.34Z" transform="translate(1.65 1.85)"/><path class="cls-28" d="M1026.21,535.4c-9.65-15.65,69.92-20.14,74.25,59.81C1093.25,488,1020,526.12,1020,526.12Z" transform="translate(1.65 1.85)"/><path class="cls-20" d="M932.37,479.71l33,1L925.15,470.4s74.25-16.5,107.25-3.09c-69.09-36.1-102.09-7.22-102.09-7.22L998.37,423l-73.22,25.78s65-52.59,83.53-35.06c18.57-48.47-66,0-66,0l-30.93,24.75L920,453.9l4.08,8.28-10.31,12.38Z" transform="translate(1.65 1.85)"/><path class="cls-20" d="M990.08,502.4s109.31-36.09,152.63,38.15c-18.57-13.4-45.38-46.4-138.19-28.87C1005.59,507.55,990.08,502.4,990.08,502.4Z" transform="translate(1.65 1.85)"/><polygon class="cls-20" points="964.63 432.13 993.27 419.53 966.92 419.53 964.63 432.13"/><path class="cls-20" d="M1013.39,386.74s19.48,12.61,3.44,37.81c36.66-41.24,10.31-61.87,10.31-61.87Z" transform="translate(1.65 1.85)"/><path class="cls-20" d="M913.71,598.7s39,14.9,44.68,40.11c-10.31-48.13-55-56.15-55-56.15Z" transform="translate(1.65 1.85)"/><polygon class="cls-20" points="911.92 577.64 984.1 636.07 908.48 562.75 911.92 577.64"/><polygon class="cls-20" points="1001.29 631.49 927.96 577.64 950.88 578.79 976.08 594.83 1001.29 631.49"/><path class="cls-20" d="M309.29,571.12s20.91,9.37,31,36.78-16.58-44.71-16.58-44.71Z" transform="translate(1.65 1.85)"/><polygon class="cls-20" points="256.85 523.21 253.24 549.17 266.95 522.49 256.85 523.21"/><polygon class="cls-20" points="340.5 646.52 344.83 679.7 344.11 642.92 340.5 646.52"/><polygon class="cls-20" points="306.61 569.36 323.19 594.6 305.89 554.94 306.61 569.36"/><polygon class="cls-20" points="305.17 509.51 311.66 518.88 311.66 495.09 317.42 503.02 313.82 474.17 305.17 509.51"/><path class="cls-20" d="M1035.08,537.42l28.64,4.45-18.46,1.91s36.29,10.19,37.56,16.55c-6.37-1.27-30.55-8.27-30.55-8.27l-16.55-8.92Z" transform="translate(1.65 1.85)"/><path class="cls-20" d="M1114.08,601.71s-2.55-27.38-13.37-45.2c21,33.1,24.83,59.84,24.83,59.84Z" transform="translate(1.65 1.85)"/><polygon class="cls-20" points="1029.13 404.32 1014.49 422.78 1013.22 395.41 1027.86 401.77 1029.13 404.32"/><path class="cls-20" d="M714,174.44s29.71-38.94,58.37-41.07c0,0-47.56,37.83-43.24,50.8,7.57-14,27-29.18,27-29.18l-9.7,24.89,41.08-41.08L759.4,181l-23.78,21.62-24.86-19.46Z" transform="translate(1.65 1.85)"/><path class="cls-20" d="M496.73,169s32.43-18.38,55.13-20.54c0,0-40,17.29-45.4,33.51,4.32,0,38.91-19.46,38.91-19.46l32.43-3.24-35.67,10.81L509.7,187.41l48.64-10.81-19.45,20.54L503.21,211.2Z" transform="translate(1.65 1.85)"/><polygon class="cls-20" points="487.57 192.51 543.78 159 518.92 192.51 557.83 174.13 559.99 193.59 511.35 223.86 487.57 192.51"/><path class="cls-20" d="M849.08,338.75s21.62,32.43,55.13,29.19c-65.9,7.56-31.31,11.94-31.31,11.94s-23.82,1-41.07-3.3S849.08,338.75,849.08,338.75Z" transform="translate(1.65 1.85)"/><polygon class="cls-30" points="631.7 1128.55 591.56 1171.36 634.37 1140.59 611.06 1189.68 634.58 1151.64 620.75 1185.53 637.35 1157.87 621.44 1194.52 644.96 1150.95 638.8 1159.18 641.19 1148.29 632.43 1162.36 638.8 1145.64 628.98 1155.73 639.33 1134.48 615.97 1150.95 631.7 1128.55"/><path class="cls-30" d="M666.08,1117l-7.69,9.8,13.22-11.23-14.88,19.83,18.84-11.9-9.25,11.9,10.25-6.94-5,11.24,11.9-13.56-23.14,52.56,30.08-56.52s-.66,17.19.33,16.19,5-19.17,5-19.17,4.62,60.82-7.94,89.25c0,0,19.51-46.28,12.23-92.88-.66-2.32-.33,13.88-.33,13.88l-3.62-20.49-3.31,18.51-2.31-18.85-5.62,20.83.66-10.58-7.27,10.25,2-5.62-5.62,4.3,7.27-11.9L669,1125.13l7.27-15.86-7.27,7.27,1-6Z" transform="translate(1.65 1.85)"/><path class="cls-30" d="M576.66,1106.44l-2.94,3.51-25,29.8L580,1110.19l-21.24,44.13,33.37-55.79-4.16,21.24,9.16-22.89s-2.92,36.63-10.83,50.37c0,0,15.41-29.14,14.57-50.79l-3.33-7.49-3.74,13.32.41-12.07L580.42,1114l6.66-15.82-10,12.07,6.66-16.24Z" transform="translate(1.65 1.85)"/><path class="cls-31" d="M351.48,756.4l-18.71,28.48,33-13.36L339.05,810.7l51.66-29.39-37.45,60.57L388,814.27l-18.7,58.78,44.53-34.74-37.4,57,66.79-21.37L384.43,934.5l82.83-49-68.58,84.65,73.92-60.57s-65.9,112.22-65.9,106,92.62-101.53,92.62-101.53l-84.61,122,98.86-104.17-72.14,115.78,82.83-73.92s-57.89,89.06-54.33,81.94,66.8-75.71,66.8-72.14-61.45,100.64-61.45,100.64l63.23-62.35L496.65,1094,551,1044.1l-30.28,78.37,53.44-52.59L535,1129.55l52.54-63.24-21.41-3.54-31.17,41,26.72-72.14L523.33,1061l28.5-49.87-45.42,35.62,37.4-63.23-2.67-9.8-27.61,29.39L539.36,955l-65,54.32,54.33-90-63.23,57,46.31-71.25L459.22,947l30.29-53.44L445,925.59l36.52-48.09-53.41,24.07,33-40.08-58.79,15.14L429,821.41l-46.31,33,16.92-63.23-20.54,23.11,18.7-35.63-8-3.56L359.5,794.69l18.71-41-24.94,16,16.91-41.81-13.5,6.88L321.2,752.88l40.07-14.25Z" transform="translate(1.65 1.85)"/><path class="cls-30" d="M718.08,1130s12.8,62-11.86,90c32-38.91,16.89-93.54,16.89-93.54s23.41,58.24,6.3,80.84c30.07-33.71.53-81.9.53-81.9s18.25-4.23,22.65,19.29a76.75,76.75,0,0,1,.44,21.17l-4.59,46.87,14-69.66,1.56,30.17,3.51-47L785,1180.14l-17.48-80L761,1131.75l-20.61-22.32,8.94,19.24-22.59-17.11,8.71,40.25-19.12-44.22,8.37,37.43Z" transform="translate(1.65 1.85)"/><polygon class="cls-31" points="781.12 1082.83 802.36 1156.06 791.37 1068.18 811.14 1109.19 800.16 1035.23 811.88 1068.91 811.88 1021.31 820.66 1038.16 825.06 1000.81 836.77 1020.58 836.17 980.08 854.35 1004.47 857.28 969.32 865.34 986.89 868.27 942.95 877.79 962.73 881.45 925.38 892.43 940.02 895.36 906.34 899.76 913.66 898.29 892.42 905.76 915.02 900.68 909.34 890.92 932.25 878.35 917.58 876.26 952.89 865.78 933.14 863.69 975.94 852.62 953.79 852.92 994.79 832.87 969.95 833.17 1009.45 824.19 992.69 818.21 1028.6 809.53 1012.74 808.93 1054.34 799.05 1028.3 805.64 1088.45 788.88 1057.03 793.07 1111.19 781.12 1082.83"/><polygon class="cls-32" points="639.52 1174.23 622.52 1220.15 651.43 1169.13 639.52 1223.55 661.63 1190.39 655.68 1229.5 677.78 1176.78 668.43 1225.25 689.69 1160.63 663.33 1203.14 665.88 1179.33 648.02 1205.69 657.38 1162.33 640.37 1185.29 639.52 1174.23"/></g></g></g></g></g></svg>